<svg width="15" height="11" viewBox="0 0 15 11" fill="none" xmlns="http://www.w3.org/2000/svg">
<path d="M9.00006 9.5C8.0055 9.5 7.05167 9.10491 6.34841 8.40165C5.64515 7.69839 5.25006 6.74456 5.25006 5.75C5.25006 4.75544 5.64515 3.80161 6.34841 3.09835C7.05167 2.39509 8.0055 2 9.00006 2C9.99462 2 10.9484 2.39509 11.6517 3.09835C12.355 3.80161 12.7501 4.75544 12.7501 5.75C12.7501 6.74456 12.355 7.69839 11.6517 8.40165C10.9484 9.10491 9.99462 9.5 9.00006 9.5ZM9.00006 11C10.3924 11 11.7278 10.4469 12.7124 9.46231C13.6969 8.47775 14.2501 7.14239 14.2501 5.75C14.2501 4.35761 13.6969 3.02226 12.7124 2.03769C11.7278 1.05312 10.3924 0.5 9.00006 0.5C7.60767 0.5 6.27231 1.05312 5.28775 2.03769C4.30318 3.02226 3.75006 4.35761 3.75006 5.75C3.75006 7.14239 4.30318 8.47775 5.28775 9.46231C6.27231 10.4469 7.60767 11 9.00006 11ZM1.50006 2.75C1.50006 2.94891 1.42104 3.13968 1.28039 3.28033C1.13974 3.42098 0.948973 3.5 0.750061 3.5C0.551148 3.5 0.360383 3.42098 0.219731 3.28033C0.0790788 3.13968 6.10352e-05 2.94891 6.10352e-05 2.75C6.10352e-05 2.55109 0.0790788 2.36032 0.219731 2.21967C0.360383 2.07902 0.551148 2 0.750061 2C0.948973 2 1.13974 2.07902 1.28039 2.21967C1.42104 2.36032 1.50006 2.55109 1.50006 2.75Z" fill="white"/>
</svg>
